# xmcd
#
# Track frame offsets: 
#        150
#        21164
#        35154
#        52553
#        65897
#        82793
#        98521
#        115313
#        136980
#        153630
#
# Disc length: 2436 seconds
#
# Revision: 0
# Processed by: cddbd v1.5.2PL0 Copyright (c) Steve Scherf et al.
# Submitted via: ExactAudioCopy v0.99pb5
#
DISCID=7a09820a
DTITLE=Rodney Hayden - Tavern Of Poets
DYEAR=2010
DGENRE=Country
TTITLE0=Too Many Highs
TTITLE1=Cold Goodnight
TTITLE2=Last Train To Rome
TTITLE3=Goodnight New York
TTITLE4=Waiting On The Pain
TTITLE5=More Wishes Than Dimes
TTITLE6=It's Just The Rain
TTITLE7=Tending Bar By The Tracks In Tupelo, MS
TTITLE8=Take Me Back Wife
TTITLE9=C'est La Vie
EXTD=
EXTT0=
EXTT1=
EXTT2=
EXTT3=
EXTT4=
EXTT5=
EXTT6=
EXTT7=
EXTT8=
EXTT9=
PLAYORDER=
